<svg xmlns="http://www.w3.org/2000/svg" viewBox="0 0 512 512" fill="none">
  <defs>
    <linearGradient id="ios-red" x1="80" y1="48" x2="432" y2="464" gradientUnits="userSpaceOnUse">
      <stop offset="0" stop-color="#ff3b3b"/>
      <stop offset="0.45" stop-color="#d40000"/>
      <stop offset="1" stop-color="#7a0000"/>
    </linearGradient>
    <linearGradient id="ios-metal" x1="0" y1="0" x2="512" y2="512" gradientUnits="userSpaceOnUse">
      <stop offset="0" stop-color="#ffffff" stop-opacity="0.22"/>
      <stop offset="0.5" stop-color="#ffffff" stop-opacity="0.04"/>
      <stop offset="1" stop-color="#ffffff" stop-opacity="0"/>
    </linearGradient>
    <radialGradient id="ios-glow" cx="0" cy="0" r="1" gradientUnits="userSpaceOnUse" gradientTransform="translate(256 268) rotate(90) scale(220)">
      <stop offset="0" stop-color="#d40000" stop-opacity="0.55"/>
      <stop offset="0.55" stop-color="#d40000" stop-opacity="0.12"/>
      <stop offset="1" stop-color="#d40000" stop-opacity="0"/>
    </radialGradient>
    <filter id="ios-soft" x="-20%" y="-20%" width="140%" height="140%">
      <feGaussianBlur stdDeviation="6" result="b"/>
      <feMerge>
        <feMergeNode in="b"/>
        <feMergeNode in="SourceGraphic"/>
      </feMerge>
    </filter>
  </defs>
  <rect width="512" height="512" fill="#050505"/>
  <rect width="512" height="512" fill="url(#ios-metal)"/>
  <rect width="512" height="512" fill="url(#ios-glow)"/>
  <path
    fill="#0a0a0a"
    stroke="url(#ios-red)"
    stroke-width="5"
    d="M56 72h400v368H56L72 88 440 88 440 424 72 424Z"
  />
  <path
    fill="none"
    stroke="#d40000"
    stroke-width="2"
    stroke-opacity="0.35"
    d="M96 128h320M96 384h320M128 96v320M384 96v320"
  />
  <circle cx="256" cy="256" r="132" stroke="url(#ios-red)" stroke-width="3" stroke-opacity="0.35"/>
  <circle cx="256" cy="256" r="98" stroke="#d40000" stroke-width="7" filter="url(#ios-soft)"/>
  <circle cx="256" cy="256" r="72" fill="#0c0c0c" stroke="url(#ios-red)" stroke-width="4"/>
  <path
    fill="url(#ios-red)"
    d="M176 256c0-44 18-78 44-96 8-6 18-9 28-9 22 0 40 18 40 40v18c0 22-18 40-40 40h-8c-22 0-40-18-40-40v-47zm48-47c-11 0-20 9-20 20v47c0 11 9 20 20 20h8c11 0 20-9 20-20v-18c0-11-9-20-20-20h-8z"
  />
  <path
    fill="url(#ios-red)"
    d="M300 151c38 0 68 31 68 69v72c0 38-30 69-68 69s-68-31-68-69v-72c0-38 30-69 68-69zm0 36c-18 0-32 15-32 33v72c0 18 14 33 32 33s32-15 32-33v-72c0-18-14-33-32-33z"
  />
  <path
    fill="url(#ios-red)"
    d="M372 151h36v186h-36V151zm18-28c14 0 26 12 26 26s-12 26-26 26-26-12-26-26 12-26 26-26z"
  />
  <path
    fill="#f5f5f5"
    fill-opacity="0.9"
    d="M118 392h76l10-22h80l10 22h76l-86-40-86 40z"
  />
  <circle cx="256" cy="118" r="6" fill="#d40000"/>
  <circle cx="394" cy="256" r="6" fill="#d40000" fill-opacity="0.7"/>
  <circle cx="118" cy="256" r="6" fill="#d40000" fill-opacity="0.7"/>
</svg>
