<svg xmlns="http://www.w3.org/2000/svg" viewBox="0 0 32 32" fill="none">
  <rect width="32" height="32" fill="#050505"/>
  <circle cx="16" cy="16" r="11" stroke="#d40000" stroke-width="1.5"/>
  <path fill="#d40000" d="M9.5 16c0-3.2 1.3-5.6 3.1-6.8.6-.4 1.2-.6 1.9-.6 1.5 0 2.7 1.2 2.7 2.7v1.2c0 1.5-1.2 2.7-2.7 2.7h-.5c-1.5 0-2.7-1.2-2.7-2.7v-3.2zm3.1-3.2c-.7 0-1.3.6-1.3 1.3v3.2c0 .7.6 1.3 1.3 1.3h.5c.7 0 1.3-.6 1.3-1.3v-1.2c0-.7-.6-1.3-1.3-1.3h-.5z"/>
  <path fill="#d40000" d="M17.2 9.8c2.5 0 4.5 2 4.5 4.5v4.8c0 2.5-2 4.5-4.5 4.5s-4.5-2-4.5-4.5v-4.8c0-2.5 2-4.5 4.5-4.5zm0 2.4c-1.1 0-2 .9-2 2v4.8c0 1.1.9 2 2 2s2-.9 2-2v-4.8c0-1.1-.9-2-2-2z"/>
  <path fill="#d40000" d="M22.5 9.8h2.4v12.4h-2.4V9.8zm1.2-1.9c.8 0 1.5.7 1.5 1.5s-.7 1.5-1.5 1.5-1.5-.7-1.5-1.5.7-1.5 1.5-1.5z"/>
</svg>
