<svg xmlns="http://www.w3.org/2000/svg" viewBox="0 0 512 512" fill="none">
  <defs>
    <linearGradient id="ios-red" x1="80" y1="48" x2="432" y2="464" gradientUnits="userSpaceOnUse">
      <stop offset="0" stop-color="#ff3b3b"/>
      <stop offset="0.45" stop-color="#d40000"/>
      <stop offset="1" stop-color="#7a0000"/>
    </linearGradient>
    <radialGradient id="ios-glow" cx="0" cy="0" r="1" gradientUnits="userSpaceOnUse" gradientTransform="translate(256 256) rotate(90) scale(280)">
      <stop offset="0" stop-color="#d40000" stop-opacity="0.45"/>
      <stop offset="0.55" stop-color="#d40000" stop-opacity="0.12"/>
      <stop offset="1" stop-color="#050505" stop-opacity="0"/>
    </radialGradient>
    <filter id="ios-soft" x="-20%" y="-20%" width="140%" height="140%">
      <feGaussianBlur stdDeviation="5" result="b"/>
      <feMerge>
        <feMergeNode in="b"/>
        <feMergeNode in="SourceGraphic"/>
      </feMerge>
    </filter>
  </defs>
  <rect width="512" height="512" fill="#050505"/>
  <rect width="512" height="512" fill="url(#ios-glow)"/>
  <circle cx="256" cy="256" r="148" stroke="url(#ios-red)" stroke-width="4" stroke-opacity="0.3"/>
  <circle cx="256" cy="256" r="112" stroke="#d40000" stroke-width="8" filter="url(#ios-soft)"/>
  <circle cx="256" cy="256" r="84" fill="#0c0c0c" stroke="url(#ios-red)" stroke-width="4"/>
  <path
    fill="url(#ios-red)"
    d="M188 256c0-38 16-68 38-82 7-5 15-8 24-8 19 0 34 16 34 35v16c0 19-15 35-34 35h-7c-19 0-34-16-34-35v-40zm42-40c-9 0-17 8-17 17v40c0 9 8 17 17 17h7c9 0 17-8 17-17v-16c0-9-8-17-17-17h-7z"
  />
  <path
    fill="url(#ios-red)"
    d="M296 168c32 0 58 26 58 58v60c0 32-26 58-58 58s-58-26-58-58v-60c0-32 26-58 58-58zm0 30c-15 0-28 13-28 28v60c0 15 13 28 28 28s28-13 28-28v-60c0-15-13-28-28-28z"
  />
  <path
    fill="url(#ios-red)"
    d="M352 168h30v154h-30V168zm15-24c12 0 22 10 22 22s-10 22-22 22-22-10-22-22 10-22 22-22z"
  />
</svg>
