<svg xmlns="http://www.w3.org/2000/svg" viewBox="0 0 48 48" fill="none">
  <defs>
    <linearGradient id="likeGradient" x1="24" y1="0" x2="24" y2="48" gradientUnits="userSpaceOnUse">
      <stop offset="0%" stop-color="#1B9AFF"/>
      <stop offset="100%" stop-color="#0866FF"/>
    </linearGradient>
  </defs>
  <circle cx="24" cy="24" r="24" fill="url(#likeGradient)"/>
  <path fill="#FFFFFF" d="M15.5 30.25c-.966 0-1.75-.784-1.75-1.75V15.5c0-1.66 1.34-3 3-3 1.05 0 1.98.54 2.52 1.36.54-.82 1.47-1.36 2.52-1.36 1.66 0 3 1.34 3 3v6.25h1.25c2.07 0 3.75 1.68 3.75 3.75v2.25c0 1.93-1.57 3.5-3.5 3.5h-8.75c-1.24 0-2.25-1.01-2.25-2.25v-1H15.5z"/>
</svg>
